<svg xmlns="http://www.w3.org/2000/svg" style="display: none;">
  
  <symbol id="phone" viewBox="0 0 24 24">
    <path d="M15.4 21C14.2 21 13.1 20.5 12.3 19.7L4.3 11.8C3.5 10.9 3 9.8 3 8.6C3 7.4 3.5 6.3 4.3 5.5L6.8 3L11.9 8.1L10.3 9.7L14.3 13.7L15.9 12.1L21 17.2L18.5 19.7C17.7 20.5 16.5 21 15.4 21ZM6.8 5.8L5.7 6.9C5.3 7.4 5 8 5 8.6C5 9.2 5.3 9.9 5.7 10.3L13.6 18.2C14.1 18.7 14.7 18.9 15.3 18.9C16 18.9 16.6 18.6 17 18.2L18.1 17.1L15.8 14.8L14.2 16.4L7.5 9.7L9.1 8.1L6.8 5.8Z" style="fill: currentcolor;"/>
  </symbol>

  <symbol id="email" viewBox="0 0 24 24">
    <path d="M22 6C22 4.9 21.1 4 20 4H4C2.9 4 2 4.9 2 6V18C2 19.1 2.9 20 4 20H20C21.1 20 22 19.1 22 18V6M20 6L12 11L4 6H20M20 18H4V8L12 13L20 8V18Z" style="fill: currentcolor;"></path>
  </symbol>

  <symbol id="close" viewBox="0 0 24 24">
    <path fill-rule="evenodd" clip-rule="evenodd" d="M15.5359 16.9498L7.05063 8.46451L8.46484 7.05029L16.9501 15.5356L15.5359 16.9498Z" fill="fill: currentcolor;"/>
    <path fill-rule="evenodd" clip-rule="evenodd" d="M16.9494 8.46451L8.46409 16.9498L7.04988 15.5356L15.5352 7.05029L16.9494 8.46451Z" fill="fill: currentcolor;"/>
  </symbol>

  <symbol id='arrow-link' viewBox="0 0 24 24">
    <path d="M12 24C18.6274 24 24 18.6274 24 12C24 5.37258 18.6274 0 12 0C5.37258 0 0 5.37258 0 12C0 18.6274 5.37258 24 12 24Z" fill="black"/>
    <path fill-rule="evenodd" clip-rule="evenodd" d="M13.3359 12.0001L9.04297 7.70718L10.4572 6.29297L16.1643 12.0001L10.4572 17.7072L9.04297 16.293L13.3359 12.0001Z" fill="white"/>
  </symbol>

  <symbol id="success" viewBox="0 0 24 24" fill="none">
    <circle cx="12" cy="12" r="10" stroke="#4DC14D" stroke-width="2"/>
    <path d="M7 12.0267L10.5231 15.55L17.0731 9" stroke="#4DC14D" stroke-width="2"/>
  </symbol>

  <symbol id="error" viewBox="0 0 24 24" fill="none">
    <circle cx="12" cy="12" r="10" stroke="#DC1919" stroke-width="2"/>
    <line x1="7.70711" y1="7.29289" x2="16.7071" y2="16.2929" stroke="#DC1919" stroke-width="2"/>
    <line x1="16.7071" y1="7.19246" x2="7.70711" y2="16.1925" stroke="#DC1919" stroke-width="2"/>
  </symbol>
</svg>